<svg width="68" height="83" viewBox="0 0 68 83" fill="none" xmlns="http://www.w3.org/2000/svg">
<path d="M7.868 80C7.69067 79.6733 7.462 79.2907 7.182 78.852C6.91133 78.4133 6.61267 77.9467 6.286 77.452C5.95933 76.948 5.614 76.4347 5.25 75.912C4.886 75.38 4.522 74.8667 4.158 74.372C3.80333 73.868 3.45333 73.3967 3.108 72.958C2.772 72.5193 2.46867 72.1413 2.198 71.824V80H1.26V70.298H2.016C2.492 70.83 3.00067 71.446 3.542 72.146C4.09267 72.8367 4.62933 73.546 5.152 74.274C5.67467 74.9927 6.16 75.6973 6.608 76.388C7.06533 77.0787 7.43867 77.6807 7.728 78.194V70.298H8.666V80H7.868ZM10.6958 76.374C10.6958 75.7393 10.7844 75.1887 10.9618 74.722C11.1484 74.246 11.3864 73.8493 11.6758 73.532C11.9744 73.2147 12.3104 72.9813 12.6838 72.832C13.0664 72.6733 13.4584 72.594 13.8598 72.594C14.7464 72.594 15.4511 72.8833 15.9738 73.462C16.5058 74.0407 16.7718 74.932 16.7718 76.136C16.7718 76.2107 16.7671 76.2853 16.7578 76.36C16.7578 76.4347 16.7531 76.5047 16.7438 76.57H11.6618C11.6898 77.4567 11.9091 78.138 12.3198 78.614C12.7304 79.09 13.3838 79.328 14.2798 79.328C14.7744 79.328 15.1664 79.2813 15.4558 79.188C15.7451 79.0947 15.9551 79.0153 16.0858 78.95L16.2538 79.734C16.1231 79.8087 15.8758 79.8973 15.5118 80C15.1571 80.1027 14.7371 80.154 14.2518 80.154C13.6171 80.154 13.0758 80.0607 12.6278 79.874C12.1798 79.6873 11.8111 79.426 11.5218 79.09C11.2324 78.754 11.0224 78.3573 10.8918 77.9C10.7611 77.4333 10.6958 76.9247 10.6958 76.374ZM15.8338 75.8C15.8151 75.044 15.6378 74.456 15.3018 74.036C14.9658 73.616 14.4898 73.406 13.8738 73.406C13.5471 73.406 13.2531 73.4713 12.9918 73.602C12.7398 73.7327 12.5158 73.91 12.3198 74.134C12.1331 74.3487 11.9838 74.6007 11.8718 74.89C11.7691 75.1793 11.7084 75.4827 11.6898 75.8H15.8338ZM23.4617 72.762C23.5457 73.2287 23.653 73.728 23.7837 74.26C23.9237 74.7827 24.073 75.3193 24.2317 75.87C24.3997 76.4113 24.5724 76.948 24.7497 77.48C24.9364 78.012 25.123 78.5113 25.3097 78.978C25.4684 78.6233 25.6364 78.194 25.8137 77.69C25.991 77.1767 26.1684 76.64 26.3457 76.08C26.523 75.5107 26.6864 74.9413 26.8357 74.372C26.9944 73.7933 27.125 73.2567 27.2277 72.762H28.1237C27.7877 74.1807 27.419 75.478 27.0177 76.654C26.6257 77.83 26.1917 78.9453 25.7157 80H24.8617C24.7217 79.6733 24.5724 79.3093 24.4137 78.908C24.2644 78.4973 24.1057 78.0633 23.9377 77.606C23.779 77.1393 23.6204 76.654 23.4617 76.15C23.3124 75.6367 23.1677 75.114 23.0277 74.582C22.8877 75.114 22.7384 75.6367 22.5797 76.15C22.4304 76.654 22.2717 77.1393 22.1037 77.606C21.945 78.0633 21.7864 78.4973 21.6277 78.908C21.4784 79.3093 21.3337 79.6733 21.1937 80H20.3257C19.8497 78.9453 19.411 77.83 19.0097 76.654C18.6177 75.478 18.2537 74.1807 17.9177 72.762H18.8837C18.9864 73.2567 19.1124 73.7933 19.2617 74.372C19.4204 74.9413 19.5884 75.5107 19.7657 76.08C19.943 76.64 20.1204 77.172 20.2977 77.676C20.4844 78.18 20.657 78.6093 20.8157 78.964C20.993 78.4973 21.1704 77.998 21.3477 77.466C21.5344 76.934 21.707 76.3973 21.8657 75.856C22.0244 75.3147 22.1737 74.7827 22.3137 74.26C22.4537 73.728 22.575 73.2287 22.6777 72.762H23.4617ZM38.9447 75.408H39.8967V79.734C39.7194 79.8087 39.3694 79.902 38.8467 80.014C38.3334 80.1353 37.6987 80.196 36.9427 80.196C36.3081 80.196 35.7201 80.084 35.1787 79.86C34.6374 79.636 34.1661 79.314 33.7647 78.894C33.3727 78.4647 33.0647 77.9373 32.8407 77.312C32.6167 76.6773 32.5047 75.954 32.5047 75.142C32.5047 74.33 32.6261 73.6113 32.8687 72.986C33.1114 72.3513 33.4381 71.824 33.8487 71.404C34.2687 70.9747 34.7541 70.648 35.3047 70.424C35.8554 70.2 36.4434 70.088 37.0687 70.088C37.7874 70.088 38.3801 70.1673 38.8467 70.326C39.3134 70.4753 39.6541 70.62 39.8687 70.76L39.5467 71.572C39.2854 71.3853 38.9307 71.236 38.4827 71.124C38.0347 71.0027 37.5494 70.942 37.0267 70.942C36.5414 70.942 36.0841 71.0307 35.6547 71.208C35.2254 71.3853 34.8521 71.6513 34.5347 72.006C34.2174 72.3607 33.9654 72.7993 33.7787 73.322C33.6014 73.8447 33.5127 74.4513 33.5127 75.142C33.5127 75.786 33.5874 76.3693 33.7367 76.892C33.8861 77.4053 34.1101 77.8487 34.4087 78.222C34.7167 78.586 35.0947 78.866 35.5427 79.062C35.9907 79.258 36.5087 79.356 37.0967 79.356C37.5727 79.356 37.9694 79.3327 38.2867 79.286C38.6134 79.23 38.8327 79.1787 38.9447 79.132V75.408ZM44.3376 79.342C44.6922 79.342 45.0002 79.3327 45.2616 79.314C45.5322 79.286 45.7609 79.2533 45.9476 79.216V76.668C45.8449 76.6213 45.6816 76.5747 45.4576 76.528C45.2336 76.472 44.9256 76.444 44.5336 76.444C44.3096 76.444 44.0762 76.4627 43.8336 76.5C43.5909 76.528 43.3669 76.598 43.1616 76.71C42.9562 76.8127 42.7882 76.9573 42.6576 77.144C42.5269 77.3307 42.4616 77.578 42.4616 77.886C42.4616 78.1567 42.5036 78.3853 42.5876 78.572C42.6809 78.7587 42.8069 78.908 42.9656 79.02C43.1336 79.132 43.3296 79.216 43.5536 79.272C43.7869 79.3187 44.0482 79.342 44.3376 79.342ZM44.2536 72.594C44.7296 72.594 45.1309 72.664 45.4576 72.804C45.7936 72.9347 46.0642 73.1213 46.2696 73.364C46.4749 73.5973 46.6242 73.8773 46.7176 74.204C46.8109 74.5307 46.8576 74.8853 46.8576 75.268V79.832C46.7642 79.86 46.6289 79.8927 46.4516 79.93C46.2742 79.958 46.0689 79.9907 45.8356 80.028C45.6022 80.0653 45.3409 80.0933 45.0516 80.112C44.7716 80.14 44.4822 80.154 44.1836 80.154C43.8009 80.154 43.4462 80.112 43.1196 80.028C42.8022 79.944 42.5222 79.8133 42.2796 79.636C42.0462 79.4493 41.8596 79.216 41.7196 78.936C41.5889 78.6467 41.5236 78.2967 41.5236 77.886C41.5236 77.494 41.5982 77.158 41.7476 76.878C41.8969 76.598 42.1069 76.3693 42.3776 76.192C42.6482 76.0053 42.9702 75.87 43.3436 75.786C43.7169 75.702 44.1229 75.66 44.5616 75.66C44.6922 75.66 44.8276 75.6693 44.9676 75.688C45.1169 75.6973 45.2569 75.716 45.3876 75.744C45.5276 75.7627 45.6442 75.786 45.7376 75.814C45.8402 75.8327 45.9102 75.8513 45.9476 75.87V75.422C45.9476 75.17 45.9289 74.9273 45.8916 74.694C45.8542 74.4513 45.7702 74.2367 45.6396 74.05C45.5182 73.854 45.3409 73.7 45.1076 73.588C44.8836 73.4667 44.5849 73.406 44.2116 73.406C43.6796 73.406 43.2829 73.4433 43.0216 73.518C42.7602 73.5927 42.5689 73.6533 42.4476 73.7L42.3216 72.902C42.4802 72.8273 42.7229 72.7573 43.0496 72.692C43.3856 72.6267 43.7869 72.594 44.2536 72.594ZM49.1786 73.014C49.4493 72.9393 49.7993 72.8553 50.2286 72.762C50.6673 72.6687 51.2319 72.622 51.9226 72.622C52.8373 72.622 53.4999 72.888 53.9106 73.42C53.9573 73.3827 54.0459 73.322 54.1766 73.238C54.3166 73.1447 54.4893 73.0513 54.6946 72.958C54.8999 72.8647 55.1379 72.7853 55.4086 72.72C55.6886 72.6547 55.9966 72.622 56.3326 72.622C56.8833 72.622 57.3266 72.706 57.6626 72.874C58.0079 73.0327 58.2739 73.2613 58.4606 73.56C58.6473 73.8493 58.7733 74.1993 58.8386 74.61C58.9039 75.0207 58.9366 75.4687 58.9366 75.954V80H58.0266V76.248C58.0266 75.772 58.0033 75.3613 57.9566 75.016C57.9193 74.6613 57.8353 74.372 57.7046 74.148C57.5833 73.9147 57.4059 73.742 57.1726 73.63C56.9393 73.5087 56.6359 73.448 56.2626 73.448C55.9826 73.448 55.7259 73.476 55.4926 73.532C55.2686 73.5787 55.0726 73.6393 54.9046 73.714C54.7366 73.7887 54.5966 73.8633 54.4846 73.938C54.3819 74.0127 54.3073 74.0687 54.2606 74.106C54.3446 74.3487 54.4053 74.624 54.4426 74.932C54.4893 75.2307 54.5126 75.548 54.5126 75.884V80H53.6026V76.248C53.6026 75.772 53.5793 75.3613 53.5326 75.016C53.4953 74.6613 53.4113 74.372 53.2806 74.148C53.1499 73.9147 52.9633 73.742 52.7206 73.63C52.4873 73.5087 52.1746 73.448 51.7826 73.448C51.3439 73.448 50.9706 73.4713 50.6626 73.518C50.3639 73.5647 50.1726 73.6067 50.0886 73.644V80H49.1786V73.014ZM60.8305 76.374C60.8305 75.7393 60.9192 75.1887 61.0965 74.722C61.2832 74.246 61.5212 73.8493 61.8105 73.532C62.1092 73.2147 62.4452 72.9813 62.8185 72.832C63.2012 72.6733 63.5932 72.594 63.9945 72.594C64.8812 72.594 65.5859 72.8833 66.1085 73.462C66.6405 74.0407 66.9065 74.932 66.9065 76.136C66.9065 76.2107 66.9019 76.2853 66.8925 76.36C66.8925 76.4347 66.8879 76.5047 66.8785 76.57H61.7965C61.8245 77.4567 62.0439 78.138 62.4545 78.614C62.8652 79.09 63.5185 79.328 64.4145 79.328C64.9092 79.328 65.3012 79.2813 65.5905 79.188C65.8799 79.0947 66.0899 79.0153 66.2205 78.95L66.3885 79.734C66.2579 79.8087 66.0105 79.8973 65.6465 80C65.2919 80.1027 64.8719 80.154 64.3865 80.154C63.7519 80.154 63.2105 80.0607 62.7625 79.874C62.3145 79.6873 61.9459 79.426 61.6565 79.09C61.3672 78.754 61.1572 78.3573 61.0265 77.9C60.8959 77.4333 60.8305 76.9247 60.8305 76.374ZM65.9685 75.8C65.9499 75.044 65.7725 74.456 65.4365 74.036C65.1005 73.616 64.6245 73.406 64.0085 73.406C63.6819 73.406 63.3879 73.4713 63.1265 73.602C62.8745 73.7327 62.6505 73.91 62.4545 74.134C62.2679 74.3487 62.1185 74.6007 62.0065 74.89C61.9039 75.1793 61.8432 75.4827 61.8245 75.8H65.9685Z" fill="white"/>
<path d="M52.6667 1H15.3333C12.3878 1 10 3.38781 10 6.33333V43.6667C10 46.6122 12.3878 49 15.3333 49H52.6667C55.6122 49 58 46.6122 58 43.6667V6.33333C58 3.38781 55.6122 1 52.6667 1Z" stroke="white" stroke-width="2" stroke-linecap="round" stroke-linejoin="round"/>
<path d="M34 14.3333V35.6667" stroke="white" stroke-width="2" stroke-linecap="round" stroke-linejoin="round"/>
<path d="M23.3333 25H44.6667" stroke="white" stroke-width="2" stroke-linecap="round" stroke-linejoin="round"/>
</svg>
