<svg width="66" height="83" viewBox="0 0 66 83" fill="none" xmlns="http://www.w3.org/2000/svg">
<path d="M5.6 76.948C5.6 77.4147 5.55333 77.8487 5.46 78.25C5.36667 78.642 5.20333 78.9873 4.97 79.286C4.746 79.5753 4.44267 79.804 4.06 79.972C3.68667 80.1307 3.21533 80.21 2.646 80.21C2.31 80.21 2.002 80.1773 1.722 80.112C1.442 80.056 1.19467 79.986 0.98 79.902C0.765333 79.818 0.583333 79.7293 0.434 79.636C0.294 79.5427 0.186667 79.4587 0.112 79.384L0.56 78.614C0.644 78.6887 0.746667 78.7727 0.868 78.866C0.998667 78.95 1.148 79.0293 1.316 79.104C1.484 79.1787 1.67067 79.2393 1.876 79.286C2.08133 79.3327 2.30533 79.356 2.548 79.356C3.26667 79.356 3.794 79.1693 4.13 78.796C4.47533 78.4133 4.648 77.7647 4.648 76.85V70.298H5.6V76.948ZM14.2003 76.388C14.2003 76.9573 14.1163 77.4753 13.9483 77.942C13.7896 78.4087 13.5609 78.8053 13.2623 79.132C12.9729 79.4587 12.6276 79.7153 12.2263 79.902C11.8249 80.0793 11.3816 80.168 10.8963 80.168C10.4109 80.168 9.9676 80.0793 9.56627 79.902C9.16493 79.7153 8.81493 79.4587 8.51627 79.132C8.22693 78.8053 7.99827 78.4087 7.83027 77.942C7.6716 77.4753 7.59227 76.9573 7.59227 76.388C7.59227 75.8187 7.6716 75.3007 7.83027 74.834C7.99827 74.3673 8.22693 73.9707 8.51627 73.644C8.81493 73.308 9.16493 73.0513 9.56627 72.874C9.9676 72.6873 10.4109 72.594 10.8963 72.594C11.3816 72.594 11.8249 72.6873 12.2263 72.874C12.6276 73.0513 12.9729 73.308 13.2623 73.644C13.5609 73.9707 13.7896 74.3673 13.9483 74.834C14.1163 75.3007 14.2003 75.8187 14.2003 76.388ZM13.2343 76.388C13.2343 75.4827 13.0243 74.764 12.6043 74.232C12.1843 73.6907 11.6149 73.42 10.8963 73.42C10.1776 73.42 9.60827 73.6907 9.18827 74.232C8.76827 74.764 8.55827 75.4827 8.55827 76.388C8.55827 77.2933 8.76827 78.012 9.18827 78.544C9.60827 79.076 10.1776 79.342 10.8963 79.342C11.6149 79.342 12.1843 79.076 12.6043 78.544C13.0243 78.012 13.2343 77.2933 13.2343 76.388ZM17.0847 80H16.1747V72.762H17.0847V80ZM17.2947 70.578C17.2947 70.7927 17.2294 70.9653 17.0987 71.096C16.968 71.2173 16.8094 71.278 16.6227 71.278C16.436 71.278 16.2774 71.2173 16.1467 71.096C16.016 70.9653 15.9507 70.7927 15.9507 70.578C15.9507 70.3633 16.016 70.1953 16.1467 70.074C16.2774 69.9433 16.436 69.878 16.6227 69.878C16.8094 69.878 16.968 69.9433 17.0987 70.074C17.2294 70.1953 17.2947 70.3633 17.2947 70.578ZM19.497 73.014C19.7676 72.9393 20.1316 72.8553 20.589 72.762C21.0463 72.6687 21.6063 72.622 22.269 72.622C22.8196 72.622 23.277 72.7013 23.641 72.86C24.0143 73.0187 24.3083 73.2473 24.523 73.546C24.747 73.8353 24.9056 74.1853 24.999 74.596C25.0923 75.0067 25.139 75.4593 25.139 75.954V80H24.229V76.248C24.229 75.7347 24.1916 75.3007 24.117 74.946C24.0516 74.5913 23.935 74.302 23.767 74.078C23.6083 73.854 23.3936 73.6953 23.123 73.602C22.8616 73.4993 22.5303 73.448 22.129 73.448C21.6996 73.448 21.3263 73.4713 21.009 73.518C20.701 73.5647 20.5003 73.6067 20.407 73.644V80H19.497V73.014ZM36.7572 75.408H37.7092V79.734C37.5319 79.8087 37.1819 79.902 36.6592 80.014C36.1459 80.1353 35.5112 80.196 34.7552 80.196C34.1206 80.196 33.5326 80.084 32.9912 79.86C32.4499 79.636 31.9786 79.314 31.5772 78.894C31.1852 78.4647 30.8772 77.9373 30.6532 77.312C30.4292 76.6773 30.3172 75.954 30.3172 75.142C30.3172 74.33 30.4386 73.6113 30.6812 72.986C30.9239 72.3513 31.2506 71.824 31.6612 71.404C32.0812 70.9747 32.5666 70.648 33.1172 70.424C33.6679 70.2 34.2559 70.088 34.8812 70.088C35.5999 70.088 36.1926 70.1673 36.6592 70.326C37.1259 70.4753 37.4666 70.62 37.6812 70.76L37.3592 71.572C37.0979 71.3853 36.7432 71.236 36.2952 71.124C35.8472 71.0027 35.3619 70.942 34.8392 70.942C34.3539 70.942 33.8966 71.0307 33.4672 71.208C33.0379 71.3853 32.6646 71.6513 32.3472 72.006C32.0299 72.3607 31.7779 72.7993 31.5912 73.322C31.4139 73.8447 31.3252 74.4513 31.3252 75.142C31.3252 75.786 31.3999 76.3693 31.5492 76.892C31.6986 77.4053 31.9226 77.8487 32.2212 78.222C32.5292 78.586 32.9072 78.866 33.3552 79.062C33.8032 79.258 34.3212 79.356 34.9092 79.356C35.3852 79.356 35.7819 79.3327 36.0992 79.286C36.4259 79.23 36.6452 79.1787 36.7572 79.132V75.408ZM42.1501 79.342C42.5047 79.342 42.8127 79.3327 43.0741 79.314C43.3447 79.286 43.5734 79.2533 43.7601 79.216V76.668C43.6574 76.6213 43.4941 76.5747 43.2701 76.528C43.0461 76.472 42.7381 76.444 42.3461 76.444C42.1221 76.444 41.8887 76.4627 41.6461 76.5C41.4034 76.528 41.1794 76.598 40.9741 76.71C40.7687 76.8127 40.6007 76.9573 40.4701 77.144C40.3394 77.3307 40.2741 77.578 40.2741 77.886C40.2741 78.1567 40.3161 78.3853 40.4001 78.572C40.4934 78.7587 40.6194 78.908 40.7781 79.02C40.9461 79.132 41.1421 79.216 41.3661 79.272C41.5994 79.3187 41.8607 79.342 42.1501 79.342ZM42.0661 72.594C42.5421 72.594 42.9434 72.664 43.2701 72.804C43.6061 72.9347 43.8767 73.1213 44.0821 73.364C44.2874 73.5973 44.4367 73.8773 44.5301 74.204C44.6234 74.5307 44.6701 74.8853 44.6701 75.268V79.832C44.5767 79.86 44.4414 79.8927 44.2641 79.93C44.0867 79.958 43.8814 79.9907 43.6481 80.028C43.4147 80.0653 43.1534 80.0933 42.8641 80.112C42.5841 80.14 42.2947 80.154 41.9961 80.154C41.6134 80.154 41.2587 80.112 40.9321 80.028C40.6147 79.944 40.3347 79.8133 40.0921 79.636C39.8587 79.4493 39.6721 79.216 39.5321 78.936C39.4014 78.6467 39.3361 78.2967 39.3361 77.886C39.3361 77.494 39.4107 77.158 39.5601 76.878C39.7094 76.598 39.9194 76.3693 40.1901 76.192C40.4607 76.0053 40.7827 75.87 41.1561 75.786C41.5294 75.702 41.9354 75.66 42.3741 75.66C42.5047 75.66 42.6401 75.6693 42.7801 75.688C42.9294 75.6973 43.0694 75.716 43.2001 75.744C43.3401 75.7627 43.4567 75.786 43.5501 75.814C43.6527 75.8327 43.7227 75.8513 43.7601 75.87V75.422C43.7601 75.17 43.7414 74.9273 43.7041 74.694C43.6667 74.4513 43.5827 74.2367 43.4521 74.05C43.3307 73.854 43.1534 73.7 42.9201 73.588C42.6961 73.4667 42.3974 73.406 42.0241 73.406C41.4921 73.406 41.0954 73.4433 40.8341 73.518C40.5727 73.5927 40.3814 73.6533 40.2601 73.7L40.1341 72.902C40.2927 72.8273 40.5354 72.7573 40.8621 72.692C41.1981 72.6267 41.5994 72.594 42.0661 72.594ZM46.9911 73.014C47.2618 72.9393 47.6118 72.8553 48.0411 72.762C48.4798 72.6687 49.0444 72.622 49.7351 72.622C50.6498 72.622 51.3124 72.888 51.7231 73.42C51.7698 73.3827 51.8584 73.322 51.9891 73.238C52.1291 73.1447 52.3018 73.0513 52.5071 72.958C52.7124 72.8647 52.9504 72.7853 53.2211 72.72C53.5011 72.6547 53.8091 72.622 54.1451 72.622C54.6958 72.622 55.1391 72.706 55.4751 72.874C55.8204 73.0327 56.0864 73.2613 56.2731 73.56C56.4598 73.8493 56.5858 74.1993 56.6511 74.61C56.7164 75.0207 56.7491 75.4687 56.7491 75.954V80H55.8391V76.248C55.8391 75.772 55.8158 75.3613 55.7691 75.016C55.7318 74.6613 55.6478 74.372 55.5171 74.148C55.3958 73.9147 55.2184 73.742 54.9851 73.63C54.7518 73.5087 54.4484 73.448 54.0751 73.448C53.7951 73.448 53.5384 73.476 53.3051 73.532C53.0811 73.5787 52.8851 73.6393 52.7171 73.714C52.5491 73.7887 52.4091 73.8633 52.2971 73.938C52.1944 74.0127 52.1198 74.0687 52.0731 74.106C52.1571 74.3487 52.2178 74.624 52.2551 74.932C52.3018 75.2307 52.3251 75.548 52.3251 75.884V80H51.4151V76.248C51.4151 75.772 51.3918 75.3613 51.3451 75.016C51.3078 74.6613 51.2238 74.372 51.0931 74.148C50.9624 73.9147 50.7758 73.742 50.5331 73.63C50.2998 73.5087 49.9871 73.448 49.5951 73.448C49.1564 73.448 48.7831 73.4713 48.4751 73.518C48.1764 73.5647 47.9851 73.6067 47.9011 73.644V80H46.9911V73.014ZM58.643 76.374C58.643 75.7393 58.7317 75.1887 58.909 74.722C59.0957 74.246 59.3337 73.8493 59.623 73.532C59.9217 73.2147 60.2577 72.9813 60.631 72.832C61.0137 72.6733 61.4057 72.594 61.807 72.594C62.6937 72.594 63.3984 72.8833 63.921 73.462C64.453 74.0407 64.719 74.932 64.719 76.136C64.719 76.2107 64.7144 76.2853 64.705 76.36C64.705 76.4347 64.7004 76.5047 64.691 76.57H59.609C59.637 77.4567 59.8564 78.138 60.267 78.614C60.6777 79.09 61.331 79.328 62.227 79.328C62.7217 79.328 63.1137 79.2813 63.403 79.188C63.6924 79.0947 63.9024 79.0153 64.033 78.95L64.201 79.734C64.0704 79.8087 63.823 79.8973 63.459 80C63.1044 80.1027 62.6844 80.154 62.199 80.154C61.5644 80.154 61.023 80.0607 60.575 79.874C60.127 79.6873 59.7584 79.426 59.469 79.09C59.1797 78.754 58.9697 78.3573 58.839 77.9C58.7084 77.4333 58.643 76.9247 58.643 76.374ZM63.781 75.8C63.7624 75.044 63.585 74.456 63.249 74.036C62.913 73.616 62.437 73.406 61.821 73.406C61.4944 73.406 61.2004 73.4713 60.939 73.602C60.687 73.7327 60.463 73.91 60.267 74.134C60.0804 74.3487 59.931 74.6007 59.819 74.89C59.7164 75.1793 59.6557 75.4827 59.637 75.8H63.781Z" fill="white"/>
<path d="M47.6667 49V43.6667C47.6667 40.8377 46.5429 38.1246 44.5425 36.1242C42.5421 34.1238 39.829 33 37 33H15.6667C12.8377 33 10.1246 34.1238 8.12419 36.1242C6.12381 38.1246 5 40.8377 5 43.6667V49" stroke="white" stroke-width="2" stroke-linecap="round" stroke-linejoin="round"/>
<path d="M26.3333 22.3333C32.2244 22.3333 37 17.5577 37 11.6667C37 5.77563 32.2244 1 26.3333 1C20.4423 1 15.6667 5.77563 15.6667 11.6667C15.6667 17.5577 20.4423 22.3333 26.3333 22.3333Z" stroke="white" stroke-width="2" stroke-linecap="round" stroke-linejoin="round"/>
<path d="M63.6667 49V43.6667C63.6649 41.3033 62.8783 39.0074 61.4303 37.1395C59.9824 35.2716 57.955 33.9375 55.6667 33.3467" stroke="white" stroke-width="2" stroke-linecap="round" stroke-linejoin="round"/>
<path d="M45 1.34667C47.2944 1.93414 49.3281 3.26854 50.7804 5.1395C52.2326 7.01045 53.0209 9.31155 53.0209 11.68C53.0209 14.0485 52.2326 16.3495 50.7804 18.2205C49.3281 20.0915 47.2944 21.4259 45 22.0133" stroke="white" stroke-width="2" stroke-linecap="round" stroke-linejoin="round"/>
</svg>
